# xmcd
#
# Track frame offsets:
#	182
#	10000
#	20842
#	29047
#	35210
#	46662
#	60440
#	72160
#	83180
#	90187
#
# Disc length: 1322 seconds
#
# Revision: 1
# Processed by: cddbd v1.5.2PL0 Copyright (c) Steve Scherf et al.
# Submitted via: audiograbber 1.83.01
#
DISCID=7605280a
DTITLE=The Oak Ridge Quartet - The Fabulous Oak Ridge Quartet in Concert
DYEAR=1989
DGENRE=Gospel
TTITLE0=One Step Toward Jesus
TTITLE1=Since I Found The Lord
TTITLE2=Jesus Watches Over Me
TTITLE3=Over Yonder By The Sea
TTITLE4=Do Unto Others
TTITLE5=A Satisfied Mind
TTITLE6=When I See The Saviour
TTITLE7=As I Walk Thru The Valley
TTITLE8=Born Of The Spirit
TTITLE9=Get Down On Your Knees And Pray
EXTD=
EXTT0=
EXTT1=
EXTT2=
EXTT3=
EXTT4=
EXTT5=
EXTT6=
EXTT7=
EXTT8=
EXTT9=
PLAYORDER=
